<svg xmlns="http://www.w3.org/2000/svg" width="95.936" height="17.621" viewBox="0 0 95.936 17.621"><g transform="translate(-540 -343.379)"><rect width="17.621" height="17.621" transform="translate(540 343.379)" fill="#00b67a"/><rect width="17.621" height="17.621" transform="translate(559.579 343.379)" fill="#00b67a"/><rect width="17.621" height="17.621" transform="translate(579.157 343.379)" fill="#00b67a"/><rect width="17.621" height="17.621" transform="translate(598.736 343.379)" fill="#00b67a"/><rect width="18.6" height="17.621" transform="translate(617.336 343.379)" fill="#00b67a"/><path d="M20.679,25.264l2.728-.691,1.14,3.513Zm6.279-4.541h-4.8L20.679,16.2,19.2,20.723H14.4l3.887,2.8-1.476,4.523,3.887-2.8,2.392-1.719,3.868-2.8Z" transform="translate(528.291 330.206)" fill="#fff"/><path d="M124.679,25.264l2.728-.691,1.14,3.513Zm6.279-4.541h-4.8L124.679,16.2,123.2,20.723h-4.8l3.887,2.8-1.476,4.523,3.887-2.8,2.392-1.719,3.868-2.8Z" transform="translate(443.727 330.206)" fill="#fff"/><path d="M228.679,25.264l2.728-.691,1.14,3.513Zm6.279-4.541h-4.8L228.679,16.2,227.2,20.723h-4.8l3.887,2.8-1.476,4.523,3.887-2.8,2.392-1.719,3.868-2.8Z" transform="translate(359.163 330.206)" fill="#fff"/><path d="M332.679,25.264l2.729-.691,1.14,3.513Zm6.279-4.541h-4.8L332.679,16.2,331.2,20.723h-4.8l3.887,2.8-1.476,4.523,3.887-2.8,2.392-1.719,3.868-2.8Z" transform="translate(274.598 330.206)" fill="#fff"/><path d="M436.679,25.264l2.728-.691,1.14,3.513Zm6.279-4.541h-4.8L436.679,16.2,435.2,20.723h-4.8l3.887,2.8-1.476,4.523,3.887-2.8,2.392-1.719,3.868-2.8Z" transform="translate(190.034 330.206)" fill="#fff"/></g></svg>